<svg width="37" height="37" viewBox="0 0 37 37" fill="none" xmlns="http://www.w3.org/2000/svg">
<path fill-rule="evenodd" clip-rule="evenodd" d="M18.5 37C28.7173 37 37 28.7173 37 18.5C37 8.28273 28.7173 0 18.5 0C8.28273 0 0 8.28273 0 18.5C0 28.7173 8.28273 37 18.5 37Z" fill="#F2F5F7"/>
<mask id="mask0_120_3972" style="mask-type:luminance" maskUnits="userSpaceOnUse" x="0" y="0" width="37" height="37">
<path fill-rule="evenodd" clip-rule="evenodd" d="M18.5 37C28.7173 37 37 28.7173 37 18.5C37 8.28273 28.7173 0 18.5 0C8.28273 0 0 8.28273 0 18.5C0 28.7173 8.28273 37 18.5 37Z" fill="white"/>
</mask>
<g mask="url(#mask0_120_3972)">
<path fill-rule="evenodd" clip-rule="evenodd" d="M12.2525 14.4645C10.7178 13.9601 9.60968 12.5153 9.60968 10.8118L10.9677 11.0102C10.565 10.4024 10.3305 9.67346 10.3305 8.88972L12.2525 9.17056V8.16895L22.9423 9.78249C24.1174 9.95987 24.9863 10.9697 24.9863 12.1582V16.3983C25.8153 16.6117 26.4279 17.3642 26.4279 18.2599C26.4279 19.1555 25.8153 19.908 24.9863 20.1214V20.9027H24.9763C24.8546 23.0831 23.6358 24.9706 21.8629 26.0222V27.1495H24.0253C25.289 27.1495 26.3249 28.1252 26.4206 29.3644C28.7361 29.7091 30.5123 31.7056 30.5123 34.117V40.604H6.72656V34.117C6.72656 31.622 8.62808 29.5712 11.0609 29.3346C11.1709 28.1096 12.2002 27.1495 13.4538 27.1495H15.3759V26.0222C13.603 24.9706 12.3842 23.0831 12.2626 20.9027H12.2525V20.1819C11.191 20.1819 10.3305 19.3214 10.3305 18.2599C10.3305 17.1983 11.191 16.3378 12.2525 16.3378V14.4645Z" fill="#C2D1D9"/>
</g>
</svg>
