<svg width="24" height="24" viewBox="0 0 24 24" fill="none" xmlns="http://www.w3.org/2000/svg">
<path d="M12 2V4" stroke="white" stroke-width="2" stroke-linecap="round" stroke-linejoin="round"/>
<path d="M4.92969 4.93018L6.33969 6.34018" stroke="white" stroke-width="2" stroke-linecap="round" stroke-linejoin="round"/>
<path d="M20 12H22" stroke="white" stroke-width="2" stroke-linecap="round" stroke-linejoin="round"/>
<path d="M19.0702 4.93018L17.6602 6.34018" stroke="white" stroke-width="2" stroke-linecap="round" stroke-linejoin="round"/>
<path d="M15.9465 12.6501C16.0696 11.9046 15.979 11.1395 15.6852 10.4433C15.3914 9.74717 14.9065 9.14847 14.2865 8.71654C13.6665 8.28461 12.9369 8.03711 12.1821 8.00269C11.4273 7.96827 10.6782 8.14835 10.0215 8.52206" stroke="white" stroke-width="2" stroke-linecap="round" stroke-linejoin="round"/>
<path d="M13.0009 22H7.00094C6.05491 21.9998 5.12834 21.7312 4.32886 21.2255C3.52938 20.7197 2.88978 19.9975 2.48436 19.1427C2.07894 18.288 1.92433 17.3358 2.03849 16.3966C2.15265 15.4575 2.5309 14.5701 3.1293 13.8373C3.72769 13.1046 4.52168 12.5567 5.41906 12.2572C6.31643 11.9577 7.28035 11.9189 8.19888 12.1454C9.1174 12.3718 9.95283 12.8542 10.6081 13.5366C11.2634 14.2189 11.7117 15.0731 11.9009 16H13.0009C13.7966 16 14.5596 16.3161 15.1223 16.8787C15.6849 17.4413 16.0009 18.2044 16.0009 19C16.0009 19.7956 15.6849 20.5587 15.1223 21.1213C14.5596 21.6839 13.7966 22 13.0009 22Z" stroke="white" stroke-width="2" stroke-linecap="round" stroke-linejoin="round"/>
</svg>
